<svg xmlns="http://www.w3.org/2000/svg" viewBox="0 0 1200 800" width="1200" height="800">
  <defs>
    <linearGradient id="bg" x1="0%" y1="0%" x2="100%" y2="100%">
      <stop offset="0%" style="stop-color:#0a0a0f"/>
      <stop offset="100%" style="stop-color:#111118"/>
    </linearGradient>
    <linearGradient id="boxGrad" x1="0%" y1="0%" x2="100%" y2="100%">
      <stop offset="0%" style="stop-color:#111118"/>
      <stop offset="100%" style="stop-color:#0d0d14"/>
    </linearGradient>
  </defs>
  <rect width="1200" height="800" fill="url(#bg)"/>
  <text x="600" y="45" font-family="Geist, sans-serif" font-size="22" fill="#e4e4e7" font-weight="bold" text-anchor="middle">AEGIS Architecture</text>
  <text x="600" y="70" font-family="Geist Mono, monospace" font-size="12" fill="#555" text-anchor="middle">System Architecture Overview</text>
  <rect x="400" y="100" width="400" height="50" rx="8" fill="#111118" stroke="#10b981" stroke-width="1.5"/>
  <text x="600" y="130" font-family="Geist, sans-serif" font-size="14" fill="#10b981" font-weight="600" text-anchor="middle">Client Browser</text>
  <line x1="600" y1="150" x2="600" y2="180" stroke="#10b981" stroke-width="1.5"/>
  <polygon points="595,180 605,180 600,188" fill="#10b981"/>
  <rect x="350" y="190" width="500" height="50" rx="8" fill="#111118" stroke="#10b981" stroke-width="1.5"/>
  <text x="600" y="220" font-family="Geist, sans-serif" font-size="14" fill="#10b981" font-weight="600" text-anchor="middle">Next.js 16 Edge / CDN</text>
  <line x1="600" y1="240" x2="600" y2="270" stroke="#10b981" stroke-width="1.5"/>
  <polygon points="595,270 605,270 600,278" fill="#10b981"/>
  <rect x="350" y="280" width="500" height="50" rx="8" fill="#111118" stroke="#10b981" stroke-width="1.5"/>
  <text x="600" y="310" font-family="Geist, sans-serif" font-size="14" fill="#10b981" font-weight="600" text-anchor="middle">App Router</text>
  <line x1="450" y1="330" x2="450" y2="370" stroke="#555" stroke-width="1"/>
  <line x1="750" y1="330" x2="750" y2="370" stroke="#555" stroke-width="1"/>
  <polygon points="445,370 455,370 450,378" fill="#555"/>
  <polygon points="745,370 755,370 750,378" fill="#555"/>
  <rect x="300" y="380" width="280" height="50" rx="8" fill="#111118" stroke="#555" stroke-width="1"/>
  <text x="440" y="410" font-family="Geist, sans-serif" font-size="13" fill="#e4e4e7" text-anchor="middle">Server Components</text>
  <rect x="620" y="380" width="280" height="50" rx="8" fill="#111118" stroke="#555" stroke-width="1"/>
  <text x="760" y="410" font-family="Geist, sans-serif" font-size="13" fill="#e4e4e7" text-anchor="middle">Client Components</text>
  <line x1="400" y1="430" x2="400" y2="470" stroke="#555" stroke-width="1"/>
  <line x1="480" y1="430" x2="480" y2="470" stroke="#555" stroke-width="1"/>
  <polygon points="395,470 405,470 400,478" fill="#555"/>
  <polygon points="475,470 485,470 480,478" fill="#555"/>
  <rect x="250" y="480" width="180" height="50" rx="8" fill="#111118" stroke="#555" stroke-width="1"/>
  <text x="340" y="510" font-family="Geist, sans-serif" font-size="12" fill="#e4e4e7" text-anchor="middle">Mock Data Layer</text>
  <rect x="470" y="480" width="180" height="50" rx="8" fill="#111118" stroke="#555" stroke-width="1"/>
  <text x="560" y="510" font-family="Geist, sans-serif" font-size="12" fill="#e4e4e7" text-anchor="middle">Zustand Store</text>
  <line x1="750" y1="430" x2="800" y2="470" stroke="#555" stroke-width="1"/>
  <line x1="700" y1="430" x2="650" y2="470" stroke="#555" stroke-width="1"/>
  <polygon points="797,468 803,472 798,475" fill="#555"/>
  <polygon points="647,468 653,472 648,475" fill="#555"/>
  <rect x="690" y="475" width="180" height="40" rx="6" fill="#111118" stroke="#3b82f6" stroke-width="1"/>
  <text x="780" y="500" font-family="Geist, sans-serif" font-size="11" fill="#3b82f6" text-anchor="middle">API Service Layer</text>
  <rect x="690" y="525" width="180" height="40" rx="6" fill="#111118" stroke="#f59e0b" stroke-width="1"/>
  <text x="780" y="550" font-family="Geist, sans-serif" font-size="11" fill="#f59e0b" text-anchor="middle">WebSocket Streams</text>
  <rect x="350" y="580" width="500" height="50" rx="8" fill="#111118" stroke="#10b981" stroke-width="1.5"/>
  <text x="600" y="610" font-family="Geist, sans-serif" font-size="14" fill="#10b981" font-weight="600" text-anchor="middle">Vercel Edge Network</text>
  <line x1="500" y1="630" x2="500" y2="670" stroke="#555" stroke-width="1"/>
  <line x1="700" y1="630" x2="700" y2="670" stroke="#555" stroke-width="1"/>
  <polygon points="495,670 505,670 500,678" fill="#555"/>
  <polygon points="695,670 705,670 700,678" fill="#555"/>
  <rect x="350" y="680" width="200" height="50" rx="8" fill="#111118" stroke="#555" stroke-width="1"/>
  <text x="450" y="710" font-family="Geist, sans-serif" font-size="12" fill="#e4e4e7" text-anchor="middle">ISR Cache</text>
  <rect x="650" y="680" width="200" height="50" rx="8" fill="#111118" stroke="#555" stroke-width="1"/>
  <text x="750" y="710" font-family="Geist, sans-serif" font-size="12" fill="#e4e4e7" text-anchor="middle">Static Assets CDN</text>
  <line x1="600" y1="730" x2="600" y2="760" stroke="#10b981" stroke-width="1.5"/>
  <polygon points="595,760 605,760 600,768" fill="#10b981"/>
  <rect x="480" y="762" width="240" height="30" rx="6" fill="#111118" stroke="#10b981" stroke-width="1"/>
  <text x="600" y="782" font-family="Geist, sans-serif" font-size="11" fill="#10b981" text-anchor="middle">Production Deployment</text>
</svg>
